<?xml version="1.0" standalone="no"?>
<!DOCTYPE svg PUBLIC "-//W3C//DTD SVG 20010904//EN"
 "http://www.w3.org/TR/2001/REC-SVG-20010904/DTD/svg10.dtd">
<svg version="1.0" xmlns="http://www.w3.org/2000/svg"
 width="1058.000000pt" height="595.000000pt" viewBox="0 0 1058.000000 595.000000"
 preserveAspectRatio="xMidYMid meet">
<metadata>
Created by potrace 1.16, written by Peter Selinger 2001-2019
</metadata>
<g transform="translate(0.000000,595.000000) scale(0.100000,-0.100000)"
fill="#000000" stroke="none">
<path d="M9680 5946 c0 -3 51 -40 112 -81 l113 -75 227 0 228 0 0 -608 0 -607
110 -110 c61 -60 110 -105 110 -100 0 6 -47 57 -105 115 l-105 105 0 607 0
608 -231 0 -231 0 -101 68 c-126 84 -127 84 -127 78z"/>
<path d="M1360 5755 l-73 -185 -639 -3 -638 -2 642 0 642 0 74 184 c40 101 71
185 69 187 -2 2 -37 -79 -77 -181z"/>
<path d="M1438 5685 l-73 -185 -642 0 -643 0 0 -45 0 -45 150 -112 150 -113 0
-714 0 -713 -150 -188 -150 -188 0 -838 0 -839 150 -150 150 -150 0 -415 0
-415 113 -113 112 -112 867 0 866 0 39 -47 c22 -27 75 -96 118 -156 l79 -107
2191 0 2190 0 115 115 115 115 493 0 494 0 114 115 115 115 905 0 904 0 0 792
0 792 155 156 156 156 -1 889 c0 489 -3 891 -5 894 -3 3 -5 -301 -5 -675 0
-373 1 -775 0 -893 l0 -215 -155 -156 -155 -156 0 -787 0 -787 -903 0 -902 0
-115 -115 -115 -115 -490 0 -490 0 -115 -115 -115 -115 -2187 0 -2188 0 -116
155 -116 155 -872 0 -871 0 -108 108 -107 107 0 416 0 415 -150 149 -150 149
0 838 0 837 150 188 150 187 0 718 0 718 -150 112 c-147 110 -150 114 -150
150 l0 38 641 2 641 3 72 180 72 180 1021 3 1022 2 110 -110 110 -110 1518 0
1518 0 110 110 110 110 1288 0 1287 0 113 -75 112 -75 222 0 223 0 0 -602 0
-603 111 -100 c61 -55 115 -108 120 -118 6 -10 8 -37 5 -60 -4 -31 -3 -36 3
-17 22 63 17 72 -109 190 l-120 113 0 603 0 604 -226 0 -225 0 -113 75 -113
75 -1294 0 -1294 0 -110 -110 -110 -110 -1510 0 -1510 0 -110 110 -110 110
-1026 0 -1027 0 -74 -185z"/>
<path d="M10427 2092 l-147 -147 0 -760 0 -761 -73 -72 -72 -72 -190 0 -191 0
-74 75 -74 75 -607 0 -607 0 -124 -142 c-67 -78 -151 -174 -185 -212 -34 -39
-59 -73 -57 -75 2 -3 10 3 17 12 6 8 89 104 182 211 l170 196 605 0 606 0 74
-75 74 -75 191 0 190 0 78 78 77 77 0 755 0 755 147 147 c81 81 145 150 142
152 -3 3 -71 -61 -152 -142z"/>
<path d="M78 1410 l72 -75 0 -415 0 -415 153 -153 152 -152 902 0 c791 0 903
-2 917 -15 8 -8 42 -53 76 -100 34 -47 64 -85 66 -85 14 0 -132 196 -152 204
-9 3 -419 6 -912 6 l-897 0 -147 147 -148 148 0 415 0 416 -77 74 -78 75 73
-75z"/>
</g>
</svg>
